<svg width="202" height="257" viewBox="0 0 202 257" fill="none" xmlns="http://www.w3.org/2000/svg">
<g filter="url(#filter0_d_1_16)">
<path d="M101.485 141.472L198 89.6879L166.256 71.5985L101.485 107.06V141.472Z" fill="#E47B1A"/>
<path d="M198 89.6879V54.1003L166.256 71.5985L198 89.6879Z" fill="#E47B1A"/>
<path d="M101.485 0L4 54.1003L36.0632 69.4617L101.485 34.737V0Z" fill="#E47B1A"/>
<path d="M4 54.1003V87.5511L36.0632 69.4617L4 54.1003Z" fill="#E47B1A"/>
<path d="M4 87.5511L101.485 141.472V107.06L36.0632 69.4617L4 87.5511Z" fill="#3A3A3A"/>
<path d="M198 54.1003L101.485 0V34.737L166.256 71.5985L198 54.1003Z" fill="#3A3A3A"/>
</g>
<g filter="url(#filter1_d_1_16)">
<path d="M4 107.63V141.081L36.0632 122.992L4 107.63Z" fill="#E47B1A"/>
<path d="M101.485 53.5298L4 107.63L36.0632 122.992L101.485 88.2668V53.5298Z" fill="#E47B1A"/>
<path d="M101.485 195.001L198 143.218L166.256 125.128L101.485 160.589V195.001Z" fill="#E47B1A"/>
<path d="M198 143.218V107.63L166.256 125.128L198 143.218Z" fill="#E47B1A"/>
<path d="M198 107.63L101.485 53.5298V88.2668L166.256 125.128L198 107.63Z" fill="#3A3A3A"/>
<path d="M4 141.081L101.485 195.001V160.589L36.0632 122.992L4 141.081Z" fill="#3A3A3A"/>
</g>
<g filter="url(#filter2_d_1_16)">
<path d="M4 161.16V194.611L36.0632 176.521L4 161.16Z" fill="#E47B1A"/>
<path d="M101.485 107.06L4 161.16L36.0632 176.521L101.485 141.472V107.06Z" fill="#E47B1A"/>
<path d="M101.485 248.531L198 196.747L166.256 178.658L101.485 214.119V248.531Z" fill="#E47B1A"/>
<path d="M198 196.747V161.16L166.256 178.658L198 196.747Z" fill="#E47B1A"/>
<path d="M4 194.611L101.485 248.531V214.119L36.0632 176.521L4 194.611Z" fill="#3A3A3A"/>
<path fill-rule="evenodd" clip-rule="evenodd" d="M132.525 124.903L198 161.16L166.256 178.658L101.485 141.472L132.525 124.903Z" fill="#3A3A3A"/>
</g>
<defs>
<filter id="filter0_d_1_16" x="0" y="0" width="202" height="149.472" filterUnits="userSpaceOnUse" color-interpolation-filters="sRGB">
<feFlood flood-opacity="0" result="BackgroundImageFix"/>
<feColorMatrix in="SourceAlpha" type="matrix" values="0 0 0 0 0 0 0 0 0 0 0 0 0 0 0 0 0 0 127 0" result="hardAlpha"/>
<feOffset dy="4"/>
<feGaussianBlur stdDeviation="2"/>
<feComposite in2="hardAlpha" operator="out"/>
<feColorMatrix type="matrix" values="0 0 0 0 0 0 0 0 0 0 0 0 0 0 0 0 0 0 0.25 0"/>
<feBlend mode="normal" in2="BackgroundImageFix" result="effect1_dropShadow_1_16"/>
<feBlend mode="normal" in="SourceGraphic" in2="effect1_dropShadow_1_16" result="shape"/>
</filter>
<filter id="filter1_d_1_16" x="0" y="53.5298" width="202" height="149.472" filterUnits="userSpaceOnUse" color-interpolation-filters="sRGB">
<feFlood flood-opacity="0" result="BackgroundImageFix"/>
<feColorMatrix in="SourceAlpha" type="matrix" values="0 0 0 0 0 0 0 0 0 0 0 0 0 0 0 0 0 0 127 0" result="hardAlpha"/>
<feOffset dy="4"/>
<feGaussianBlur stdDeviation="2"/>
<feComposite in2="hardAlpha" operator="out"/>
<feColorMatrix type="matrix" values="0 0 0 0 0 0 0 0 0 0 0 0 0 0 0 0 0 0 0.25 0"/>
<feBlend mode="normal" in2="BackgroundImageFix" result="effect1_dropShadow_1_16"/>
<feBlend mode="normal" in="SourceGraphic" in2="effect1_dropShadow_1_16" result="shape"/>
</filter>
<filter id="filter2_d_1_16" x="0" y="107.06" width="202" height="149.472" filterUnits="userSpaceOnUse" color-interpolation-filters="sRGB">
<feFlood flood-opacity="0" result="BackgroundImageFix"/>
<feColorMatrix in="SourceAlpha" type="matrix" values="0 0 0 0 0 0 0 0 0 0 0 0 0 0 0 0 0 0 127 0" result="hardAlpha"/>
<feOffset dy="4"/>
<feGaussianBlur stdDeviation="2"/>
<feComposite in2="hardAlpha" operator="out"/>
<feColorMatrix type="matrix" values="0 0 0 0 0 0 0 0 0 0 0 0 0 0 0 0 0 0 0.25 0"/>
<feBlend mode="normal" in2="BackgroundImageFix" result="effect1_dropShadow_1_16"/>
<feBlend mode="normal" in="SourceGraphic" in2="effect1_dropShadow_1_16" result="shape"/>
</filter>
</defs>
</svg>
